<?xml version="1.0" encoding="UTF-8"?>
<!DOCTYPE svg PUBLIC "-//W3C//DTD SVG 1.1//EN" "http://www.w3.org/Graphics/SVG/1.1/DTD/svg11.dtd">
<!-- Creator: CorelDRAW X8 -->
<svg xmlns="http://www.w3.org/2000/svg" xml:space="preserve" width="772.102mm" height="142.9mm" version="1.1" style="shape-rendering:geometricPrecision; text-rendering:geometricPrecision; image-rendering:optimizeQuality; fill-rule:evenodd; clip-rule:evenodd"
viewBox="0 0 77210 14290"
 xmlns:xlink="http://www.w3.org/1999/xlink">
 <defs>
  <style type="text/css">
   <![CDATA[
    .fil4 {fill:none}
    .fil7 {fill:#FEFEFE}
    .fil3 {fill:#CBB11C}
    .fil5 {fill:#C2A327}
    .fil2 {fill:#C7AA20}
    .fil9 {fill:#CBB11C}
    .fil6 {fill:#CDB225}
    .fil1 {fill:#EB1C24}
    .fil8 {fill:#EBD701}
    .fil0 {fill:#EB1C24;fill-rule:nonzero}
   ]]>
  </style>
    <clipPath id="id0">
     <path d="M17801 0c3946,0 7145,3199 7145,7145 0,3946 -3199,7145 -7145,7145 -3946,0 -7145,-3199 -7145,-7145 0,-3946 3199,-7145 7145,-7145z"/>
    </clipPath>
    <clipPath id="id1">
     <path d="M17801 1557c3086,0 5588,2502 5588,5588 0,3086 -2502,5588 -5588,5588 -3086,0 -5588,-2502 -5588,-5588 0,-3086 2502,-5588 5588,-5588z"/>
    </clipPath>
      <mask id="id2">
  <linearGradient id="id3" gradientUnits="userSpaceOnUse" x1="31631.1" y1="9698.76" x2="14333.9" y2="9238.93">
   <stop offset="0" style="stop-opacity:1; stop-color:white"/>
   <stop offset="1" style="stop-opacity:0; stop-color:white"/>
  </linearGradient>
       <rect style="fill:url(#id3)" x="10089" y="5807" width="17192" height="9622"/>
      </mask>
    <clipPath id="id4">
     <path d="M13200 8049c112,-697 1187,-1056 4083,-904 2306,192 4375,950 3980,1812 1085,277 1346,-280 804,-626 -1358,-832 -2901,-1282 -4599,-1417 -1348,-99 -2854,-145 -4217,201 -1013,258 -870,964 -51,934z"/>
    </clipPath>
    <clipPath id="id5">
     <path d="M15312 2186c790,-405 2172,1373 3414,3802 1242,2429 1727,4666 1084,4995 -648,331 -1585,-1122 -2640,-3034l514 212c773,1312 1412,2071 1757,1889 452,-237 -69,-1997 -1064,-3943 -996,-1947 -2121,-3235 -2575,-3059 -198,77 -143,618 369,2799 -628,-1029 -1650,-3257 -859,-3661z"/>
    </clipPath>
    <clipPath id="id6">
     <path d="M17995 6587c1604,-1423 3195,-1973 3511,-1563 315,410 -917,1911 -2984,3299 -2067,1389 -3609,2182 -3852,1929 -244,-253 158,-1039 1736,-2320 -701,1716 1148,806 2350,-100 1140,-860 1939,-1745 1701,-2073 -396,-546 -2359,1145 -2462,1229l0 -401z"/>
    </clipPath>
 </defs>
 <g id="Layer_x0020_1">
  <metadata id="CorelCorpID_0Corel-Layer"/>
  <g id="_2390100243040">
   <path class="fil0" d="M10884 10308l-663 3347 -10221 0 2638 -12632 4149 0 -1996 9285 6093 0zm8301 -9495c1926,0 2808,810 3718,1848 908,1039 1499,1953 1896,3530 140,554 -81,1228 -248,1969 -166,739 -487,1506 -963,2300 -475,793 -1091,1464 -1850,2019 -758,551 -1485,919 -2185,1106 -698,186 -1439,280 -2218,280 -1800,0 -3209,-461 -4228,-1380 -1018,-919 -1529,-2209 -1529,-3867 0,-857 123,-1689 371,-2500 248,-808 618,-1576 1114,-2299 494,-724 1103,-1331 1830,-1821 724,-490 1438,-808 2142,-960 706,-149 1421,-225 2150,-225zm-1616 9906c679,0 1263,-262 1747,-785 482,-522 838,-1196 1068,-2019 231,-820 345,-1400 345,-1742 0,-738 -184,-1289 -552,-1660 -365,-368 -834,-551 -1400,-551 -645,0 -1203,239 -1675,717 -476,479 -835,1127 -1077,1944 -245,817 -368,1514 -368,2089 0,586 170,1065 505,1441 336,377 803,566 1407,566zm10463 -9696l5722 0c1077,0 1897,131 2457,394 560,260 989,651 1287,1170 297,520 446,1150 446,1885 0,957 -259,1812 -782,2559 -519,747 -1173,1284 -1952,1608 -782,321 -1856,481 -3221,481l-1544 0 -957 4535 -4143 0 2687 -12632zm2982 5322l1109 0c549,0 998,-160 1345,-481 350,-318 523,-697 523,-1132 0,-622 -342,-931 -1022,-931l-1354 0 -601 2544zm14003 -5322l-2664 12632 -4161 0 2661 -12632 4164 0z"/>
   <path class="fil1" d="M17801 0c3946,0 7145,3199 7145,7145 0,3946 -3199,7145 -7145,7145 -3946,0 -7145,-3199 -7145,-7145 0,-3946 3199,-7145 7145,-7145z"/>
   <g style="clip-path:url(#id0)">
    <g>
     <polygon id="1" class="fil2" points="21847,1255 21471,1899 12999,6993 11587,7522 10505,7523 9727,3809 11743,785 14184,77 19737,-100 21806,378 "/>
     <path class="fil3" d="M25185 7205l-1307 -60c0,0 -1323,3302 -1205,3385 119,83 -4105,2349 -4085,2494 19,145 -787,198 -787,198l44 1464 6579 -1308 1840 -2866 -213 -1981 -866 -1326z"/>
    </g>
   </g>
   <path class="fil4" d="M17801 0c3946,0 7145,3199 7145,7145 0,3946 -3199,7145 -7145,7145 -3946,0 -7145,-3199 -7145,-7145 0,-3946 3199,-7145 7145,-7145z"/>
   <path class="fil5" d="M17801 920c3438,0 6225,2787 6225,6225 0,3438 -2787,6225 -6225,6225 -3438,0 -6225,-2787 -6225,-6225 0,-3438 2787,-6225 6225,-6225z"/>
   <path class="fil6" d="M17801 1068c3356,0 6077,2721 6077,6077 0,3356 -2721,6077 -6077,6077 -3356,0 -6077,-2721 -6077,-6077 0,-3356 2721,-6077 6077,-6077z"/>
   <path class="fil3" d="M17801 1344c3204,0 5801,2597 5801,5801 0,3204 -2597,5801 -5801,5801 -3204,0 -5801,-2597 -5801,-5801 0,-3204 2597,-5801 5801,-5801z"/>
   <path class="fil7" d="M17801 1557c3086,0 5588,2502 5588,5588 0,3086 -2502,5588 -5588,5588 -3086,0 -5588,-2502 -5588,-5588 0,-3086 2502,-5588 5588,-5588z"/>
   <g style="clip-path:url(#id1)">
    <g>
     <path id="1" class="fil3" style="mask:url(#id2)" d="M23382 6849c0,0 -2982,-857 -4282,-281 0,0 -2626,460 -3687,1026 0,0 -1857,1256 -5324,867l2158 3855 3926 2724 8596 389 1663 -2936 849 -2900 -814 -3785 -3085 1041z"/>
    </g>
   </g>
   <path class="fil4" d="M17801 1557c3086,0 5588,2502 5588,5588 0,3086 -2502,5588 -5588,5588 -3086,0 -5588,-2502 -5588,-5588 0,-3086 2502,-5588 5588,-5588z"/>
   <path class="fil5" d="M13200 8049c112,-697 1187,-1056 4083,-904 2306,192 4375,950 3980,1812 1085,277 1346,-280 804,-626 -1358,-832 -2901,-1282 -4599,-1417 -1348,-99 -2854,-145 -4217,201 -1013,258 -870,964 -51,934z"/>
   <g style="clip-path:url(#id4)">
    <g>
     <g>
      <path id="1" class="fil8" d="M13291 7714c113,-697 1188,-1056 4083,-905 2306,193 4375,951 3981,1813 1084,277 1346,-280 803,-626 -1358,-832 -2901,-1282 -4599,-1417 -1348,-99 -2854,-145 -4216,201 -1014,258 -871,964 -52,934z"/>
      <g>
       <path class="fil8" d="M15403 1851c790,-405 2173,1373 3415,3802 1242,2429 1727,4666 1083,4995 -647,331 -1584,-1122 -2639,-3034l513 212c773,1312 1412,2071 1758,1889 452,-237 -70,-1997 -1065,-3943 -995,-1947 -2120,-3236 -2574,-3059 -199,77 -144,618 368,2799 -627,-1029 -1649,-3257 -859,-3661z"/>
       <path class="fil8" d="M18086 6252c1604,-1423 3195,-1973 3511,-1563 316,410 -916,1911 -2984,3299 -2067,1389 -3609,2182 -3852,1929 -244,-253 159,-1039 1736,-2320 -701,1716 1148,806 2351,-101 1139,-859 1938,-1744 1701,-2072 -397,-546 -2360,1145 -2463,1229l0 -401z"/>
      </g>
     </g>
    </g>
   </g>
   <path class="fil4" d="M13200 8049c112,-697 1187,-1056 4083,-904 2306,192 4375,950 3980,1812 1085,277 1346,-280 804,-626 -1358,-832 -2901,-1282 -4599,-1417 -1348,-99 -2854,-145 -4217,201 -1013,258 -870,964 -51,934z"/>
   <path class="fil9" d="M15312 2186c790,-405 2172,1373 3414,3802 1242,2429 1727,4666 1084,4995 -648,331 -1585,-1122 -2640,-3034l514 212c773,1312 1412,2071 1757,1889 452,-237 -69,-1997 -1064,-3943 -996,-1947 -2121,-3235 -2575,-3059 -198,77 -143,618 369,2799 -628,-1029 -1650,-3257 -859,-3661z"/>
   <g style="clip-path:url(#id5)">
    <g>
     <g>
      <path id="1" class="fil8" d="M13291 7714c113,-697 1188,-1056 4083,-905 2306,193 4375,951 3981,1813 1084,277 1346,-280 803,-626 -1358,-832 -2901,-1282 -4599,-1417 -1348,-99 -2854,-145 -4216,201 -1014,258 -871,964 -52,934z"/>
      <g>
       <path class="fil8" d="M15403 1851c790,-405 2173,1373 3415,3802 1242,2429 1727,4666 1083,4995 -647,331 -1584,-1122 -2639,-3034l513 212c773,1312 1412,2071 1758,1889 452,-237 -70,-1997 -1065,-3943 -995,-1947 -2120,-3236 -2574,-3059 -199,77 -144,618 368,2799 -627,-1029 -1649,-3257 -859,-3661z"/>
       <path class="fil8" d="M18086 6252c1604,-1423 3195,-1973 3511,-1563 316,410 -916,1911 -2984,3299 -2067,1389 -3609,2182 -3852,1929 -244,-253 159,-1039 1736,-2320 -701,1716 1148,806 2351,-101 1139,-859 1938,-1744 1701,-2072 -397,-546 -2360,1145 -2463,1229l0 -401z"/>
      </g>
     </g>
    </g>
   </g>
   <path class="fil4" d="M15312 2186c790,-405 2172,1373 3414,3802 1242,2429 1727,4666 1084,4995 -648,331 -1585,-1122 -2640,-3034l514 212c773,1312 1412,2071 1757,1889 452,-237 -69,-1997 -1064,-3943 -996,-1947 -2121,-3235 -2575,-3059 -198,77 -143,618 369,2799 -628,-1029 -1650,-3257 -859,-3661z"/>
   <path class="fil5" d="M17995 6587c1604,-1423 3195,-1973 3511,-1563 315,410 -917,1911 -2984,3299 -2067,1389 -3609,2182 -3852,1929 -244,-253 158,-1039 1736,-2320 -701,1716 1148,806 2350,-100 1140,-860 1939,-1745 1701,-2073 -396,-546 -2359,1145 -2462,1229l0 -401z"/>
   <g style="clip-path:url(#id6)">
    <g>
     <g>
      <path id="1" class="fil8" d="M13291 7714c113,-697 1188,-1056 4083,-905 2306,193 4375,951 3981,1813 1084,277 1346,-280 803,-626 -1358,-832 -2901,-1282 -4599,-1417 -1348,-99 -2854,-145 -4216,201 -1014,258 -871,964 -52,934z"/>
      <g>
       <path class="fil8" d="M15403 1851c790,-405 2173,1373 3415,3802 1242,2429 1727,4666 1083,4995 -647,331 -1584,-1122 -2639,-3034l513 212c773,1312 1412,2071 1758,1889 452,-237 -70,-1997 -1065,-3943 -995,-1947 -2120,-3236 -2574,-3059 -199,77 -144,618 368,2799 -627,-1029 -1649,-3257 -859,-3661z"/>
       <path class="fil8" d="M18086 6252c1604,-1423 3195,-1973 3511,-1563 316,410 -916,1911 -2984,3299 -2067,1389 -3609,2182 -3852,1929 -244,-253 159,-1039 1736,-2320 -701,1716 1148,806 2351,-101 1139,-859 1938,-1744 1701,-2072 -397,-546 -2360,1145 -2463,1229l0 -401z"/>
      </g>
     </g>
    </g>
   </g>
   <path class="fil4" d="M17995 6587c1604,-1423 3195,-1973 3511,-1563 315,410 -917,1911 -2984,3299 -2067,1389 -3609,2182 -3852,1929 -244,-253 158,-1039 1736,-2320 -701,1716 1148,806 2350,-100 1140,-860 1939,-1745 1701,-2073 -396,-546 -2359,1145 -2462,1229l0 -401z"/>
   <polygon class="fil0" points="48120,10143 47564,10143 47564,4748 48120,4748 "/>
   <path id="1" class="fil0" d="M52372 10143l-549 0 0 -2199c0,-833 -287,-1250 -859,-1250 -295,0 -540,118 -734,354 -195,235 -291,536 -291,900l0 2195 -549 0 0 -3852 549 0 0 645 13 0c272,-488 669,-732 1191,-732 398,0 702,135 913,406 211,272 316,665 316,1180l0 2353z"/>
   <path id="2" class="fil0" d="M56541 10143l-541 0 0 -663 -14 0c-270,503 -687,754 -1254,754 -454,0 -818,-172 -1092,-518 -272,-346 -408,-815 -408,-1409 0,-633 152,-1141 455,-1527 303,-385 704,-576 1201,-576 499,0 866,210 1098,629l14 0 0 -2389 541 0 0 5699zm-541 -2319c0,-313 -100,-579 -300,-800 -201,-220 -450,-330 -750,-330 -359,0 -642,143 -850,427 -209,285 -312,670 -312,1157 0,441 97,795 294,1062 197,266 464,400 802,400 323,0 589,-126 799,-378 211,-251 317,-569 317,-953l0 -585z"/>
   <path id="3" class="fil0" d="M57487 8267c0,-641 164,-1145 491,-1513 329,-366 776,-550 1344,-550 530,0 947,176 1253,529 303,353 457,844 457,1475 0,610 -165,1101 -494,1471 -330,370 -763,555 -1302,555 -526,0 -949,-180 -1270,-541 -319,-362 -479,-837 -479,-1426zm556 -27c0,456 112,818 336,1091 225,273 523,409 896,409 386,0 682,-131 888,-394 207,-263 309,-637 309,-1119 0,-487 -104,-864 -311,-1131 -206,-268 -502,-402 -886,-402 -376,0 -675,139 -898,414 -223,277 -334,654 -334,1132z"/>
   <path id="4" class="fil0" d="M64949 10143l-549 0 0 -2199c0,-833 -287,-1250 -859,-1250 -295,0 -540,118 -734,354 -194,235 -291,536 -291,900l0 2195 -549 0 0 -3852 549 0 0 645 13 0c272,-488 669,-732 1191,-732 398,0 702,135 913,406 211,272 316,665 316,1180l0 2353z"/>
   <path id="5" class="fil0" d="M68946 8362l-2572 0c12,445 124,785 337,1020 213,237 498,354 858,354 414,0 791,-145 1132,-436l0 557c-324,252 -745,377 -1259,377 -512,0 -911,-177 -1200,-533 -290,-355 -433,-846 -433,-1474 0,-585 159,-1068 476,-1450 318,-383 711,-573 1180,-573 470,0 834,162 1092,489 259,325 389,777 389,1353l0 316zm-566 -513c0,-359 -81,-641 -243,-843 -163,-203 -389,-304 -679,-304 -273,0 -509,103 -707,312 -198,209 -321,488 -370,835l1999 0z"/>
   <path id="6" class="fil0" d="M69609 9359c317,249 666,374 1045,374 516,0 773,-185 773,-554 0,-158 -55,-289 -168,-393 -114,-104 -335,-223 -666,-354 -383,-162 -641,-326 -775,-492 -135,-166 -203,-376 -203,-630 0,-327 134,-593 401,-799 267,-205 592,-307 976,-307 309,0 587,56 836,171l0 606c-269,-187 -577,-279 -922,-279 -225,0 -403,52 -531,159 -128,106 -193,238 -193,397 0,172 47,303 142,393 97,90 304,203 624,337 433,179 715,354 845,524 131,171 197,375 197,611 0,343 -133,613 -398,812 -266,201 -607,299 -1020,299 -375,0 -697,-77 -963,-234l0 -641z"/>
   <path id="7" class="fil0" d="M72825 4905c0,-109 36,-201 104,-276 70,-74 153,-112 252,-112 104,0 191,38 260,114 71,75 107,168 107,274 0,110 -36,203 -107,275 -69,74 -156,111 -260,111 -99,0 -182,-37 -252,-108 -68,-73 -104,-165 -104,-278zm77 5238l0 -3852 545 0 0 3852 -545 0z"/>
   <path id="8" class="fil0" d="M74724 6567c355,-243 763,-363 1222,-363 842,0 1264,473 1264,1421l0 2518 -549 0 0 -604 -21 0c-251,464 -622,695 -1114,695 -355,0 -637,-100 -844,-301 -208,-203 -313,-472 -313,-810 0,-715 398,-1132 1194,-1249l1095 -168c0,-669 -251,-1004 -753,-1004 -442,0 -835,160 -1181,480l0 -615zm1047 1747c-283,39 -493,113 -628,220 -137,108 -204,291 -204,549 0,197 65,354 194,473 131,120 302,180 513,180 292,0 535,-110 725,-330 191,-220 287,-495 287,-828l0 -389 -887 125z"/>
  </g>
 </g>
</svg>
